<?xml version="1.0" encoding="UTF-8" standalone="no"?>
<!-- Created with Inkscape (http://www.inkscape.org/) -->

<svg
   xmlns:dc="http://purl.org/dc/elements/1.1/"
   xmlns:cc="http://creativecommons.org/ns#"
   xmlns:rdf="http://www.w3.org/1999/02/22-rdf-syntax-ns#"
   xmlns:svg="http://www.w3.org/2000/svg"
   xmlns="http://www.w3.org/2000/svg"
   xmlns:xlink="http://www.w3.org/1999/xlink"
   xmlns:sodipodi="http://sodipodi.sourceforge.net/DTD/sodipodi-0.dtd"
   xmlns:inkscape="http://www.inkscape.org/namespaces/inkscape"
   width="210mm"
   height="297mm"
   viewBox="0 0 744.09448819 1052.3622047"
   id="svg5330"
   version="1.1"
   inkscape:version="0.91 r13725"
   sodipodi:docname="logo.svg">
  <defs
     id="defs5332">
    <linearGradient
       inkscape:collect="always"
       xlink:href="#linearGradient4863"
       id="linearGradient5324"
       gradientUnits="userSpaceOnUse"
       x1="347.89508"
       y1="160.93295"
       x2="471.84271"
       y2="160.93295" />
    <linearGradient
       id="linearGradient4863"
       inkscape:collect="always">
      <stop
         id="stop4873"
         offset="0"
         style="stop-color:#4d0202;stop-opacity:0.56078434" />
      <stop
         id="stop4875"
         offset="1"
         style="stop-color:#110000;stop-opacity:0.74901962" />
    </linearGradient>
    <linearGradient
       inkscape:collect="always"
       xlink:href="#linearGradient4883"
       id="linearGradient5326"
       gradientUnits="userSpaceOnUse"
       gradientTransform="translate(0,60.861691)"
       x1="347.89508"
       y1="160.93295"
       x2="471.84271"
       y2="160.93295" />
    <linearGradient
       inkscape:collect="always"
       id="linearGradient4883">
      <stop
         style="stop-color:#4d0202;stop-opacity:0.56078434"
         offset="0"
         id="stop4885" />
      <stop
         style="stop-color:#160000;stop-opacity:0.74901962"
         offset="1"
         id="stop4887" />
    </linearGradient>
    <linearGradient
       inkscape:collect="always"
       xlink:href="#linearGradient4791"
       id="linearGradient5328"
       gradientUnits="userSpaceOnUse"
       x1="420.25195"
       y1="134.13379"
       x2="502.33957"
       y2="114.13379" />
    <linearGradient
       inkscape:collect="always"
       id="linearGradient4791">
      <stop
         style="stop-color:#fec1c1;stop-opacity:0.34509805"
         offset="0"
         id="stop4779" />
      <stop
         style="stop-color:#4e0b0b;stop-opacity:0.44072947"
         offset="1"
         id="stop4781" />
    </linearGradient>
    <linearGradient
       inkscape:collect="always"
       xlink:href="#linearGradient4791"
       id="linearGradient5164"
       gradientUnits="userSpaceOnUse"
       x1="415.67776"
       y1="136.65892"
       x2="347.49246"
       y2="139.1843" />
    <linearGradient
       inkscape:collect="always"
       xlink:href="#linearGradient4791"
       id="linearGradient5166"
       gradientUnits="userSpaceOnUse"
       gradientTransform="translate(0,61.089064)"
       x1="420.25195"
       y1="134.13379"
       x2="502.33957"
       y2="114.13379" />
    <linearGradient
       inkscape:collect="always"
       xlink:href="#linearGradient4791"
       id="linearGradient5168"
       gradientUnits="userSpaceOnUse"
       gradientTransform="translate(0,61.089064)"
       x1="415.67776"
       y1="136.65892"
       x2="347.49246"
       y2="139.1843" />
    <linearGradient
       inkscape:collect="always"
       xlink:href="#linearGradient4791"
       id="linearGradient5170"
       gradientUnits="userSpaceOnUse"
       gradientTransform="translate(0,122.19519)"
       x1="420.25195"
       y1="134.13379"
       x2="502.33957"
       y2="114.13379" />
    <linearGradient
       inkscape:collect="always"
       xlink:href="#linearGradient4791"
       id="linearGradient5172"
       gradientUnits="userSpaceOnUse"
       gradientTransform="translate(0,122.19519)"
       x1="415.67776"
       y1="136.65892"
       x2="347.49246"
       y2="139.1843" />
    <linearGradient
       inkscape:collect="always"
       id="linearGradient4215">
      <stop
         style="stop-color:#ffffff;stop-opacity:0.57"
         offset="0"
         id="stop4217" />
      <stop
         style="stop-color:#00b700;stop-opacity:0.43"
         offset="1"
         id="stop4219" />
    </linearGradient>
    <radialGradient
       inkscape:collect="always"
       xlink:href="#linearGradient4215"
       id="radialGradient4233"
       cx="266.68027"
       cy="397.15652"
       fx="266.68027"
       fy="397.15652"
       r="69.675148"
       gradientTransform="matrix(0.42453496,0,0,0.42145747,102.56234,272.36263)"
       gradientUnits="userSpaceOnUse" />
    <radialGradient
       inkscape:collect="always"
       xlink:href="#linearGradient4215"
       id="radialGradient4223"
       cx="437.9166"
       cy="388.99762"
       fx="437.9166"
       fy="388.99762"
       r="143.95407"
       gradientTransform="matrix(0.53617946,-0.004213,0.00200108,0.25467262,52.892948,345.27915)"
       gradientUnits="userSpaceOnUse" />
  </defs>
  <sodipodi:namedview
     id="base"
     pagecolor="#ffffff"
     bordercolor="#666666"
     borderopacity="1.0"
     inkscape:pageopacity="0.0"
     inkscape:pageshadow="2"
     inkscape:zoom="0.7"
     inkscape:cx="271.05698"
     inkscape:cy="618.11421"
     inkscape:document-units="px"
     inkscape:current-layer="layer2"
     showgrid="false"
     inkscape:window-width="1920"
     inkscape:window-height="1016"
     inkscape:window-x="0"
     inkscape:window-y="27"
     inkscape:window-maximized="1" />
  <metadata
     id="metadata5335">
    <rdf:RDF>
      <cc:Work
         rdf:about="">
        <dc:format>image/svg+xml</dc:format>
        <dc:type
           rdf:resource="http://purl.org/dc/dcmitype/StillImage" />
        <dc:title></dc:title>
      </cc:Work>
    </rdf:RDF>
  </metadata>
  <g
     inkscape:groupmode="layer"
     id="layer2"
     inkscape:label="box"
     style="opacity:1">
    <rect
       style="color:#000000;display:inline;overflow:visible;visibility:visible;opacity:1;fill:#00ffff;fill-opacity:1;fill-rule:nonzero;stroke:none;stroke-width:4;stroke-linecap:butt;stroke-linejoin:round;stroke-miterlimit:4;stroke-dasharray:none;stroke-dashoffset:0;stroke-opacity:1;marker:none;enable-background:accumulate"
       id="rect6437"
       width="256"
       height="256"
       x="130.30968"
       y="326.20987"
       inkscape:export-xdpi="50.625"
       inkscape:export-ydpi="50.625" />
  </g>
  <g
     inkscape:label="Layer 1"
     inkscape:groupmode="layer"
     id="layer1">
    <g
       id="g6404"
       inkscape:export-xdpi="50.625"
       inkscape:export-ydpi="50.625">
      <circle
         cy="455.36206"
         cx="257.58893"
         id="path6402"
         style="color:#000000;display:inline;overflow:visible;visibility:visible;opacity:1;fill:#ffffff;fill-opacity:1;fill-rule:nonzero;stroke:none;stroke-width:4;stroke-linecap:butt;stroke-linejoin:round;stroke-miterlimit:4;stroke-dasharray:none;stroke-dashoffset:0;stroke-opacity:1;marker:none;enable-background:accumulate"
         r="123.23861" />
      <g
         transform="translate(-152.70752,257.82873)"
         id="g5121"
         style="display:inline;opacity:1">
        <path
           inkscape:export-ydpi="131.58946"
           inkscape:export-xdpi="131.58946"
           inkscape:export-filename="/home/reg/Desktop/scalaguy.png"
           sodipodi:nodetypes="ccccc"
           inkscape:connector-curvature="0"
           id="path5123"
           d="m 347.89507,119.10744 c 49.02188,11.23731 108.89009,17.76502 123.94764,43.75 l 0,39.90103 C 440.28118,163.4409 391.9179,167.79917 347.89507,160.0799 Z"
           style="color:#000000;display:inline;overflow:visible;visibility:visible;opacity:1;fill:#f91212;fill-opacity:1;fill-rule:nonzero;stroke:none;stroke-width:0.30000001;stroke-linecap:butt;stroke-linejoin:round;stroke-miterlimit:4;stroke-dasharray:0.6, 0.3, 0.15, 0.3;stroke-dashoffset:0;stroke-opacity:1;marker:none;enable-background:accumulate" />
        <path
           inkscape:export-ydpi="131.58946"
           inkscape:export-xdpi="131.58946"
           inkscape:export-filename="/home/reg/Desktop/scalaguy.png"
           style="color:#000000;display:inline;overflow:visible;visibility:visible;opacity:1;fill:url(#linearGradient5324);fill-opacity:1;fill-rule:nonzero;stroke:none;stroke-width:0.30000001;stroke-linecap:butt;stroke-linejoin:round;stroke-miterlimit:4;stroke-dasharray:0.6, 0.3, 0.15, 0.3;stroke-dashoffset:0;stroke-opacity:1;marker:none;enable-background:accumulate"
           d="m 347.89507,119.10744 c 49.02188,11.23731 108.89009,17.76502 123.94764,43.75 l 0,39.90103 C 440.28118,163.4409 391.9179,167.79917 347.89507,160.0799 Z"
           id="path5125"
           inkscape:connector-curvature="0"
           sodipodi:nodetypes="ccccc" />
        <path
           inkscape:export-ydpi="131.58946"
           inkscape:export-xdpi="131.58946"
           inkscape:export-filename="/home/reg/Desktop/scalaguy.png"
           style="color:#000000;display:inline;overflow:visible;visibility:visible;opacity:1;fill:#f91212;fill-opacity:1;fill-rule:nonzero;stroke:none;stroke-width:0.30000001;stroke-linecap:butt;stroke-linejoin:round;stroke-miterlimit:4;stroke-dasharray:0.6, 0.3, 0.15, 0.3;stroke-dashoffset:0;stroke-opacity:1;marker:none;enable-background:accumulate"
           d="m 349.37845,117.94635 c 40.49309,-1.78263 103.11211,-6.99736 120.94385,-17.57334 0.79104,-0.469161 1.66011,0.79925 1.66011,1.79205 l 0,39.32081 c 0,0.99281 -0.83877,1.37824 -1.66011,1.79207 -31.19885,15.71949 -78.68047,16.3926 -120.94385,17.57333 -0.91934,0.0257 -1.66011,-0.79925 -1.66011,-1.79205 l 0,-39.32082 c 0,-0.9928 0.7413,-1.7516 1.66011,-1.79205 z"
           id="path5127"
           inkscape:connector-curvature="0"
           sodipodi:nodetypes="sssssssss" />
        <path
           inkscape:export-ydpi="131.58946"
           inkscape:export-xdpi="131.58946"
           inkscape:export-filename="/home/reg/Desktop/scalaguy.png"
           style="color:#000000;display:inline;overflow:visible;visibility:visible;opacity:1;fill:#f91212;fill-opacity:1;fill-rule:nonzero;stroke:none;stroke-width:0.30000001;stroke-linecap:butt;stroke-linejoin:round;stroke-miterlimit:4;stroke-dasharray:0.6, 0.3, 0.15, 0.3;stroke-dashoffset:0;stroke-opacity:1;marker:none;enable-background:accumulate"
           d="m 347.89507,180.17887 c 49.02188,11.23731 108.89009,17.76502 123.94764,43.75 l 0,39.90103 C 440.28118,224.51233 391.9179,228.8706 347.89507,221.15133 Z"
           id="path5129"
           inkscape:connector-curvature="0"
           sodipodi:nodetypes="ccccc" />
        <path
           inkscape:export-ydpi="131.58946"
           inkscape:export-xdpi="131.58946"
           inkscape:export-filename="/home/reg/Desktop/scalaguy.png"
           sodipodi:nodetypes="ccccc"
           inkscape:connector-curvature="0"
           id="path5131"
           d="m 347.89507,179.96913 c 49.02188,11.23731 108.89009,17.76502 123.94764,43.75 l 0,39.90103 C 440.28118,224.30259 391.9179,228.66086 347.89507,220.94159 Z"
           style="color:#000000;display:inline;overflow:visible;visibility:visible;opacity:1;fill:url(#linearGradient5326);fill-opacity:1;fill-rule:nonzero;stroke:none;stroke-width:0.30000001;stroke-linecap:butt;stroke-linejoin:round;stroke-miterlimit:4;stroke-dasharray:0.6, 0.3, 0.15, 0.3;stroke-dashoffset:0;stroke-opacity:1;marker:none;enable-background:accumulate" />
        <path
           inkscape:export-ydpi="131.58946"
           inkscape:export-xdpi="131.58946"
           inkscape:export-filename="/home/reg/Desktop/scalaguy.png"
           sodipodi:nodetypes="sssssssss"
           inkscape:connector-curvature="0"
           id="path5133"
           d="m 349.37845,179.0606 c 40.49309,-1.78263 103.11211,-6.99736 120.94385,-17.57334 0.79104,-0.46916 1.66011,0.79925 1.66011,1.79205 l 0,39.32081 c 0,0.99281 -0.83877,1.37824 -1.66011,1.79207 -31.19885,15.71949 -78.68047,16.3926 -120.94385,17.57333 -0.91934,0.0257 -1.66011,-0.79925 -1.66011,-1.79205 l 0,-39.32082 c 0,-0.9928 0.7413,-1.7516 1.66011,-1.79205 z"
           style="color:#000000;display:inline;overflow:visible;visibility:visible;opacity:1;fill:#f91212;fill-opacity:1;fill-rule:nonzero;stroke:none;stroke-width:0.30000001;stroke-linecap:butt;stroke-linejoin:round;stroke-miterlimit:4;stroke-dasharray:0.6, 0.3, 0.15, 0.3;stroke-dashoffset:0;stroke-opacity:1;marker:none;enable-background:accumulate" />
        <path
           inkscape:export-ydpi="131.58946"
           inkscape:export-xdpi="131.58946"
           inkscape:export-filename="/home/reg/Desktop/scalaguy.png"
           style="color:#000000;display:inline;overflow:visible;visibility:visible;opacity:1;fill:#f91212;fill-opacity:1;fill-rule:nonzero;stroke:none;stroke-width:0.30000001;stroke-linecap:butt;stroke-linejoin:round;stroke-miterlimit:4;stroke-dasharray:0.6, 0.3, 0.15, 0.3;stroke-dashoffset:0;stroke-opacity:1;marker:none;enable-background:accumulate"
           d="m 349.37845,240.17481 c 40.49309,-1.78263 103.11211,-6.99736 120.94385,-17.57334 0.79104,-0.46916 1.66011,0.79925 1.66011,1.79205 l 0,39.32081 c 0,0.99281 -0.83877,1.37824 -1.66011,1.79207 -31.19885,15.71949 -78.68047,16.3926 -120.94385,17.57333 -0.91934,0.0257 -1.66011,-0.79925 -1.66011,-1.79205 l 0,-39.32082 c 0,-0.9928 0.7413,-1.7516 1.66011,-1.79205 z"
           id="path5135"
           inkscape:connector-curvature="0"
           sodipodi:nodetypes="sssssssss" />
        <g
           inkscape:export-ydpi="131.58946"
           inkscape:export-xdpi="131.58946"
           inkscape:export-filename="/home/reg/Desktop/scalaguy.png"
           id="g5138">
          <path
             inkscape:connector-curvature="0"
             style="color:#000000;display:inline;overflow:visible;visibility:visible;opacity:1;fill:url(#linearGradient5328);fill-opacity:1;fill-rule:nonzero;stroke:none;stroke-width:0.30000001;stroke-linecap:butt;stroke-linejoin:round;stroke-miterlimit:4;stroke-dasharray:0.6, 0.3, 0.15, 0.3;stroke-dashoffset:0;stroke-opacity:1;marker:none;enable-background:accumulate"
             d="m 470.62109,100.27539 c -0.0995,0.008 -0.19994,0.039 -0.29882,0.0977 -8.93436,5.29895 -29.11449,9.25171 -52.11915,12.10156 l 0,44.55664 c 19.46109,-2.36322 37.56315,-6.41989 52.11915,-13.75391 0.82134,-0.41383 1.66015,-0.7982 1.66015,-1.79101 l 0,-39.32031 c 0,-0.8687 -0.66505,-1.94858 -1.36133,-1.89063 z m -52.41797,56.75586 c -1.6854,0.20466 -3.38351,0.39198 -5.08789,0.57227 1.70399,-0.18022 3.4029,-0.36766 5.08789,-0.57227 z m -17.46484,-42.64063 c -1.77845,0.17264 -3.56247,0.32907 -5.3457,0.49024 1.78323,-0.16122 3.56724,-0.31756 5.3457,-0.49024 z m -51.35937,3.55665 c -0.34456,0.0152 -0.66479,0.1306 -0.92969,0.32226 0.26491,-0.19148 0.58513,-0.3071 0.92969,-0.32226 z m -0.92969,0.32226 c -0.1766,0.12778 -0.32809,0.28927 -0.44727,0.47656 0.11918,-0.18717 0.27066,-0.34891 0.44727,-0.47656 z m -0.44727,0.47656 c -0.11917,0.1873 -0.20587,0.40113 -0.25,0.63282 0.0441,-0.23163 0.13082,-0.44564 0.25,-0.63282 z m 60.22852,39.33203 c -1.71639,0.15873 -3.44014,0.3069 -5.16992,0.44532 1.7302,-0.13836 3.45313,-0.28662 5.16992,-0.44532 z m -8.47852,0.70118 c -1.66422,0.12124 -3.33351,0.23227 -5.00586,0.33789 1.67271,-0.10554 3.34129,-0.21671 5.00586,-0.33789 z m -8.45117,0.55078 c -1.74262,0.0997 -3.4895,0.18926 -5.23633,0.27539 1.7477,-0.0861 3.49285,-0.17574 5.23633,-0.27539 z m -43.54883,0.0918 c 0.0441,0.23504 0.13087,0.45376 0.25,0.64648 -0.11913,-0.19283 -0.20589,-0.41139 -0.25,-0.64648 z m 35.1875,0.33593 c -1.98138,0.0895 -3.96252,0.16972 -5.94336,0.2461 1.9814,-0.0763 3.96142,-0.15668 5.94336,-0.2461 z m -8.3789,0.3418 c -2.07592,0.0753 -4.14592,0.14351 -6.21485,0.20898 2.06908,-0.0654 4.13877,-0.13378 6.21485,-0.20898 z m -8.51563,0.2832 c -5.60992,0.17027 -11.18454,0.31562 -16.66601,0.46875 5.48278,-0.15317 11.05452,-0.2987 16.66601,-0.46875 z"
             id="path5140" />
          <path
             inkscape:connector-curvature="0"
             style="color:#000000;display:inline;overflow:visible;visibility:visible;opacity:1;fill:url(#linearGradient5164);fill-opacity:1;fill-rule:nonzero;stroke:none;stroke-width:0.30000001;stroke-linecap:butt;stroke-linejoin:round;stroke-miterlimit:4;stroke-dasharray:0.6, 0.3, 0.15, 0.3;stroke-dashoffset:0;stroke-opacity:1;marker:none;enable-background:accumulate"
             d="m 418.20312,112.47461 c -22.90947,2.83806 -48.61964,4.58319 -68.82421,5.47266 -0.91881,0.0404 -1.66016,0.79821 -1.66016,1.79101 l 0,39.32031 c 0,0.9928 0.74082,1.81867 1.66016,1.79297 22.54517,-0.62985 46.57303,-1.11828 68.82421,-3.82031 l 0,-44.55664 z"
             id="path5142" />
        </g>
        <path
           inkscape:export-ydpi="131.58946"
           inkscape:export-xdpi="131.58946"
           inkscape:export-filename="/home/reg/Desktop/scalaguy.png"
           style="color:#000000;display:inline;overflow:visible;visibility:visible;opacity:1;fill:#f9f678;fill-opacity:0;fill-rule:nonzero;stroke:none;stroke-width:0.30000001;stroke-linecap:butt;stroke-linejoin:round;stroke-miterlimit:4;stroke-dasharray:0.6, 0.3, 0.15, 0.3;stroke-dashoffset:0;stroke-opacity:1;marker:none;enable-background:accumulate"
           d="m 349.37845,117.94635 c 40.49309,-1.78263 103.11211,-6.99736 120.94385,-17.57334 0.79104,-0.469161 1.66011,0.79925 1.66011,1.79205 l 0,39.32081 c 0,0.99281 -0.83877,1.37824 -1.66011,1.79207 -31.19885,15.71949 -78.68047,16.3926 -120.94385,17.57333 -0.91934,0.0257 -1.66011,-0.79925 -1.66011,-1.79205 l 0,-39.32082 c 0,-0.9928 0.7413,-1.7516 1.66011,-1.79205 z"
           id="path5144"
           inkscape:connector-curvature="0"
           sodipodi:nodetypes="sssssssss" />
        <g
           inkscape:export-ydpi="131.58946"
           inkscape:export-xdpi="131.58946"
           inkscape:export-filename="/home/reg/Desktop/scalaguy.png"
           id="g5146">
          <path
             id="path5148"
             d="m 470.62109,161.36445 c -0.0995,0.008 -0.19994,0.039 -0.29882,0.0977 -8.93436,5.29895 -29.11449,9.25171 -52.11915,12.10156 l 0,44.55664 c 19.46109,-2.36322 37.56315,-6.41989 52.11915,-13.75391 0.82134,-0.41383 1.66015,-0.7982 1.66015,-1.79101 l 0,-39.32031 c 0,-0.8687 -0.66505,-1.94858 -1.36133,-1.89063 z m -52.41797,56.75586 c -1.6854,0.20466 -3.38351,0.39198 -5.08789,0.57227 1.70399,-0.18022 3.4029,-0.36766 5.08789,-0.57227 z m -17.46484,-42.64063 c -1.77845,0.17264 -3.56247,0.32907 -5.3457,0.49024 1.78323,-0.16122 3.56724,-0.31756 5.3457,-0.49024 z m -51.35937,3.55665 c -0.34456,0.0152 -0.66479,0.1306 -0.92969,0.32226 0.26491,-0.19148 0.58513,-0.3071 0.92969,-0.32226 z m -0.92969,0.32226 c -0.1766,0.12778 -0.32809,0.28927 -0.44727,0.47656 0.11918,-0.18717 0.27066,-0.34891 0.44727,-0.47656 z m -0.44727,0.47656 c -0.11917,0.1873 -0.20587,0.40113 -0.25,0.63282 0.0441,-0.23163 0.13082,-0.44564 0.25,-0.63282 z m 60.22852,39.33203 c -1.71639,0.15873 -3.44014,0.3069 -5.16992,0.44532 1.7302,-0.13836 3.45313,-0.28662 5.16992,-0.44532 z m -8.47852,0.70118 c -1.66422,0.12124 -3.33351,0.23227 -5.00586,0.33789 1.67271,-0.10554 3.34129,-0.21671 5.00586,-0.33789 z m -8.45117,0.55078 c -1.74262,0.0997 -3.4895,0.18926 -5.23633,0.27539 1.7477,-0.0861 3.49285,-0.17574 5.23633,-0.27539 z m -43.54883,0.0918 c 0.0441,0.23504 0.13087,0.45376 0.25,0.64648 -0.11913,-0.19283 -0.20589,-0.41139 -0.25,-0.64648 z m 35.1875,0.33593 c -1.98138,0.0895 -3.96252,0.16972 -5.94336,0.2461 1.9814,-0.0763 3.96142,-0.15668 5.94336,-0.2461 z m -8.3789,0.3418 c -2.07592,0.0753 -4.14592,0.14351 -6.21485,0.20898 2.06908,-0.0654 4.13877,-0.13378 6.21485,-0.20898 z m -8.51563,0.2832 c -5.60992,0.17027 -11.18454,0.31562 -16.66601,0.46875 5.48278,-0.15317 11.05452,-0.2987 16.66601,-0.46875 z"
             style="color:#000000;display:inline;overflow:visible;visibility:visible;opacity:1;fill:url(#linearGradient5166);fill-opacity:1;fill-rule:nonzero;stroke:none;stroke-width:0.30000001;stroke-linecap:butt;stroke-linejoin:round;stroke-miterlimit:4;stroke-dasharray:0.6, 0.3, 0.15, 0.3;stroke-dashoffset:0;stroke-opacity:1;marker:none;enable-background:accumulate"
             inkscape:connector-curvature="0" />
          <path
             id="path5150"
             d="m 418.20312,173.56367 c -22.90947,2.83806 -48.61964,4.58319 -68.82421,5.47266 -0.91881,0.0404 -1.66016,0.79821 -1.66016,1.79101 l 0,39.32031 c 0,0.9928 0.74082,1.81867 1.66016,1.79297 22.54517,-0.62985 46.57303,-1.11828 68.82421,-3.82031 l 0,-44.55664 z"
             style="color:#000000;display:inline;overflow:visible;visibility:visible;opacity:1;fill:url(#linearGradient5168);fill-opacity:1;fill-rule:nonzero;stroke:none;stroke-width:0.30000001;stroke-linecap:butt;stroke-linejoin:round;stroke-miterlimit:4;stroke-dasharray:0.6, 0.3, 0.15, 0.3;stroke-dashoffset:0;stroke-opacity:1;marker:none;enable-background:accumulate"
             inkscape:connector-curvature="0" />
        </g>
        <g
           inkscape:export-ydpi="131.58946"
           inkscape:export-xdpi="131.58946"
           inkscape:export-filename="/home/reg/Desktop/scalaguy.png"
           id="g5152">
          <path
             inkscape:connector-curvature="0"
             style="color:#000000;display:inline;overflow:visible;visibility:visible;opacity:1;fill:url(#linearGradient5170);fill-opacity:1;fill-rule:nonzero;stroke:none;stroke-width:0.30000001;stroke-linecap:butt;stroke-linejoin:round;stroke-miterlimit:4;stroke-dasharray:0.6, 0.3, 0.15, 0.3;stroke-dashoffset:0;stroke-opacity:1;marker:none;enable-background:accumulate"
             d="m 470.62109,222.47058 c -0.0995,0.008 -0.19994,0.039 -0.29882,0.0977 -8.93436,5.29895 -29.11449,9.25171 -52.11915,12.10156 l 0,44.55664 c 19.46109,-2.36322 37.56315,-6.41989 52.11915,-13.75391 0.82134,-0.41383 1.66015,-0.7982 1.66015,-1.79101 l 0,-39.32031 c 0,-0.8687 -0.66505,-1.94858 -1.36133,-1.89063 z m -52.41797,56.75586 c -1.6854,0.20466 -3.38351,0.39198 -5.08789,0.57227 1.70399,-0.18022 3.4029,-0.36766 5.08789,-0.57227 z m -17.46484,-42.64063 c -1.77845,0.17264 -3.56247,0.32907 -5.3457,0.49024 1.78323,-0.16122 3.56724,-0.31756 5.3457,-0.49024 z m -51.35937,3.55665 c -0.34456,0.0152 -0.66479,0.1306 -0.92969,0.32226 0.26491,-0.19148 0.58513,-0.3071 0.92969,-0.32226 z m -0.92969,0.32226 c -0.1766,0.12778 -0.32809,0.28927 -0.44727,0.47656 0.11918,-0.18717 0.27066,-0.34891 0.44727,-0.47656 z m -0.44727,0.47656 c -0.11917,0.1873 -0.20587,0.40113 -0.25,0.63282 0.0441,-0.23163 0.13082,-0.44564 0.25,-0.63282 z m 60.22852,39.33203 c -1.71639,0.15873 -3.44014,0.3069 -5.16992,0.44532 1.7302,-0.13836 3.45313,-0.28662 5.16992,-0.44532 z m -8.47852,0.70118 c -1.66422,0.12124 -3.33351,0.23227 -5.00586,0.33789 1.67271,-0.10554 3.34129,-0.21671 5.00586,-0.33789 z m -8.45117,0.55078 c -1.74262,0.0997 -3.4895,0.18926 -5.23633,0.27539 1.7477,-0.0861 3.49285,-0.17574 5.23633,-0.27539 z m -43.54883,0.0918 c 0.0441,0.23504 0.13087,0.45376 0.25,0.64648 -0.11913,-0.19283 -0.20589,-0.41139 -0.25,-0.64648 z m 35.1875,0.33593 c -1.98138,0.0895 -3.96252,0.16972 -5.94336,0.2461 1.9814,-0.0763 3.96142,-0.15668 5.94336,-0.2461 z m -8.3789,0.3418 c -2.07592,0.0753 -4.14592,0.14351 -6.21485,0.20898 2.06908,-0.0654 4.13877,-0.13378 6.21485,-0.20898 z m -8.51563,0.2832 c -5.60992,0.17027 -11.18454,0.31562 -16.66601,0.46875 5.48278,-0.15317 11.05452,-0.2987 16.66601,-0.46875 z"
             id="path5154" />
          <path
             inkscape:connector-curvature="0"
             style="color:#000000;display:inline;overflow:visible;visibility:visible;opacity:1;fill:url(#linearGradient5172);fill-opacity:1;fill-rule:nonzero;stroke:none;stroke-width:0.30000001;stroke-linecap:butt;stroke-linejoin:round;stroke-miterlimit:4;stroke-dasharray:0.6, 0.3, 0.15, 0.3;stroke-dashoffset:0;stroke-opacity:1;marker:none;enable-background:accumulate"
             d="m 418.20312,234.6698 c -22.90947,2.83806 -48.61964,4.58319 -68.82421,5.47266 -0.91881,0.0404 -1.66016,0.79821 -1.66016,1.79101 l 0,39.32031 c 0,0.9928 0.74082,1.81867 1.66016,1.79297 22.54517,-0.62985 46.57303,-1.11828 68.82421,-3.82031 l 0,-44.55664 z"
             id="path5156" />
        </g>
      </g>
      <ellipse
         ry="36.662292"
         rx="61.113537"
         cy="451.90167"
         cx="269.67245"
         id="path3336"
         style="color:#000000;display:inline;overflow:visible;visibility:visible;opacity:1;fill:#00ff00;fill-opacity:1;fill-rule:nonzero;stroke:#000000;stroke-width:1.79777443;stroke-linecap:butt;stroke-linejoin:round;stroke-miterlimit:4;stroke-dasharray:none;stroke-dashoffset:0;stroke-opacity:1;marker:none;enable-background:accumulate" />
      <ellipse
         style="color:#000000;display:inline;overflow:visible;visibility:visible;opacity:1;fill:url(#radialGradient4223);fill-opacity:1;fill-rule:nonzero;stroke:none;stroke-width:4.23469114;stroke-linecap:butt;stroke-linejoin:round;stroke-miterlimit:4;stroke-dasharray:none;stroke-dashoffset:0;stroke-opacity:1;marker:none;enable-background:accumulate"
         id="ellipse4213"
         cx="269.67245"
         cy="451.90167"
         rx="61.113537"
         ry="36.662292" />
      <path
         sodipodi:nodetypes="cccccccccc"
         inkscape:connector-curvature="0"
         id="rect4182"
         d="m 244.05348,469.19863 -5.05794,2.40128 14.75856,16.00796 0.0754,-0.0357 -5.04813,20.58679 5.12095,0.0829 5.07715,-22.36785 -1.52152,-0.0249 1.35403,-0.64261 z"
         style="color:#000000;display:inline;overflow:visible;visibility:visible;opacity:1;fill:#000000;fill-opacity:1;fill-rule:nonzero;stroke:#000000;stroke-width:1.33186245;stroke-linecap:butt;stroke-linejoin:round;stroke-miterlimit:4;stroke-dasharray:none;stroke-dashoffset:0;stroke-opacity:1;marker:none;enable-background:accumulate" />
      <path
         style="color:#000000;display:inline;overflow:visible;visibility:visible;opacity:1;fill:#000000;fill-opacity:1;fill-rule:nonzero;stroke:#000000;stroke-width:1.33186245;stroke-linecap:butt;stroke-linejoin:round;stroke-miterlimit:4;stroke-dasharray:none;stroke-dashoffset:0;stroke-opacity:1;marker:none;enable-background:accumulate"
         d="m 274.43236,469.62116 -5.05793,2.40127 12.07511,18.13695 0.0754,-0.0357 -3.70326,19.53622 5.25956,-0.63615 3.59367,-20.59821 -1.52152,-0.0249 1.35402,-0.64261 z"
         id="path4203"
         inkscape:connector-curvature="0"
         sodipodi:nodetypes="cccccccccc" />
      <path
         sodipodi:nodetypes="cccccccccc"
         inkscape:connector-curvature="0"
         id="path4207"
         d="m 303.40804,469.40673 -5.05793,2.40128 9.45186,14.94662 0.0754,-0.0357 -5.50299,20.43517 5.12096,0.0829 5.53201,-22.21623 -1.52153,-0.0249 1.35403,-0.64261 z"
         style="color:#000000;display:inline;overflow:visible;visibility:visible;opacity:1;fill:#000000;fill-opacity:1;fill-rule:nonzero;stroke:#000000;stroke-width:1.33186245;stroke-linecap:butt;stroke-linejoin:round;stroke-miterlimit:4;stroke-dasharray:none;stroke-dashoffset:0;stroke-opacity:1;marker:none;enable-background:accumulate" />
      <ellipse
         ry="10.737151"
         rx="10.812962"
         style="color:#000000;display:inline;overflow:visible;visibility:visible;opacity:1;fill:#ff2a2a;fill-opacity:1;fill-rule:nonzero;stroke:#000000;stroke-width:2.01258397;stroke-linecap:butt;stroke-linejoin:round;stroke-miterlimit:4;stroke-dasharray:none;stroke-dashoffset:0;stroke-opacity:1;marker:none;enable-background:accumulate"
         id="circle4172"
         cx="190.89366"
         cy="428.48651" />
      <ellipse
         ry="28.303774"
         rx="28.518198"
         cy="446.82318"
         cx="208.70149"
         id="path3338"
         style="color:#000000;display:inline;overflow:visible;visibility:visible;opacity:1;fill:#00ff00;fill-opacity:1;fill-rule:nonzero;stroke:#000000;stroke-width:2.1226747;stroke-linecap:butt;stroke-linejoin:round;stroke-miterlimit:4;stroke-dasharray:none;stroke-dashoffset:0;stroke-opacity:1;marker:none;enable-background:accumulate" />
      <ellipse
         style="color:#000000;display:inline;overflow:visible;visibility:visible;opacity:1;fill:url(#radialGradient4233);fill-opacity:1;fill-rule:nonzero;stroke:#000000;stroke-width:2.1226747;stroke-linecap:butt;stroke-linejoin:round;stroke-miterlimit:4;stroke-dasharray:none;stroke-dashoffset:0;stroke-opacity:1;marker:none;enable-background:accumulate"
         id="ellipse4225"
         cx="208.70149"
         cy="446.82318"
         rx="28.518198"
         ry="28.303774" />
      <circle
         r="11.364395"
         cy="434.17227"
         cx="189.83231"
         id="path3345"
         style="color:#000000;display:inline;overflow:visible;visibility:visible;opacity:1;fill:#ff2a2a;fill-opacity:1;fill-rule:nonzero;stroke:#000000;stroke-width:2.1226747;stroke-linecap:butt;stroke-linejoin:round;stroke-miterlimit:4;stroke-dasharray:none;stroke-dashoffset:0;stroke-opacity:1;marker:none;enable-background:accumulate" />
      <path
         sodipodi:nodetypes="cccc"
         inkscape:connector-curvature="0"
         id="path3347"
         d="m 216.93192,427.82496 c -0.85283,-4.73045 -7.68004,-9.13063 -3.08447,-15.78209 3.17609,-1.35267 4.78385,-4.03651 6.16895,-5.61141 5.23433,-4.00033 -0.41423,-8.46923 -3.08448,-10.17067"
         style="display:inline;fill:none;fill-rule:evenodd;stroke:#000000;stroke-width:1.84185266;stroke-linecap:butt;stroke-linejoin:miter;stroke-miterlimit:4;stroke-dasharray:none;stroke-opacity:1" />
      <path
         style="display:inline;fill:none;fill-rule:evenodd;stroke:#000000;stroke-width:1.47548008;stroke-linecap:butt;stroke-linejoin:miter;stroke-miterlimit:4;stroke-dasharray:none;stroke-opacity:1"
         d="m 210.32216,417.67437 c -0.8447,-3.32356 -8.49884,-3.14345 -2.64275,-11.82081 2.72125,-1.01316 0.34247,-5.2566 0.34247,-5.2566 5.62116,-1.86097 5.88193,-5.47106 2.30028,-6.56422"
         id="path4149"
         inkscape:connector-curvature="0"
         sodipodi:nodetypes="cccc" />
      <ellipse
         ry="5.4583068"
         rx="4.7002087"
         cy="434.18372"
         cx="184.30373"
         id="path4170"
         style="color:#000000;display:inline;overflow:visible;visibility:visible;opacity:1;fill:#000000;fill-opacity:1;fill-rule:nonzero;stroke:#000000;stroke-width:1.69813979;stroke-linecap:butt;stroke-linejoin:round;stroke-miterlimit:4;stroke-dasharray:none;stroke-dashoffset:0;stroke-opacity:1;marker:none;enable-background:accumulate" />
    </g>
  </g>
</svg>
