<?xml version="1.0" encoding="UTF-8" standalone="no"?>
<!-- Created with Inkscape (http://www.inkscape.org/) -->

<svg
   xmlns:dc="http://purl.org/dc/elements/1.1/"
   xmlns:cc="http://creativecommons.org/ns#"
   xmlns:rdf="http://www.w3.org/1999/02/22-rdf-syntax-ns#"
   xmlns:svg="http://www.w3.org/2000/svg"
   xmlns="http://www.w3.org/2000/svg"
   xmlns:sodipodi="http://sodipodi.sourceforge.net/DTD/sodipodi-0.dtd"
   xmlns:inkscape="http://www.inkscape.org/namespaces/inkscape"
   width="210mm"
   height="297mm"
   viewBox="0 0 744.09448819 1052.3622047"
   id="svg2"
   version="1.1"
   inkscape:version="0.91 r13725"
   sodipodi:docname="jumper.svg"
   inkscape:export-filename="/home/reg/Desktop/character4.png"
   inkscape:export-xdpi="5.8099999"
   inkscape:export-ydpi="5.8099999">
  <defs
     id="defs4" />
  <sodipodi:namedview
     id="base"
     pagecolor="#ffffff"
     bordercolor="#666666"
     borderopacity="1.0"
     inkscape:pageopacity="0.0"
     inkscape:pageshadow="2"
     inkscape:zoom="0.35"
     inkscape:cx="172.14208"
     inkscape:cy="524.00272"
     inkscape:document-units="px"
     inkscape:current-layer="layer4"
     showgrid="false"
     inkscape:window-width="1920"
     inkscape:window-height="1016"
     inkscape:window-x="0"
     inkscape:window-y="27"
     inkscape:window-maximized="1" />
  <metadata
     id="metadata7">
    <rdf:RDF>
      <cc:Work
         rdf:about="">
        <dc:format>image/svg+xml</dc:format>
        <dc:type
           rdf:resource="http://purl.org/dc/dcmitype/StillImage" />
        <dc:title></dc:title>
      </cc:Work>
    </rdf:RDF>
  </metadata>
  <g
     inkscape:label="Layer 1"
     inkscape:groupmode="layer"
     id="layer1"
     style="display:none">
    <circle
       style="color:#000000;display:inline;overflow:visible;visibility:visible;opacity:1;fill:#c20606;fill-opacity:1;fill-rule:nonzero;stroke:none;stroke-width:0.30000001;stroke-linecap:butt;stroke-linejoin:round;stroke-miterlimit:4;stroke-dasharray:0.6, 0.3, 0.15, 0.3;stroke-dashoffset:0;stroke-opacity:1;marker:none;enable-background:accumulate"
       id="path4188"
       cx="377.69183"
       cy="318.41925"
       r="79.301537" />
    <path
       sodipodi:nodetypes="sssssssss"
       inkscape:connector-curvature="0"
       id="path4186"
       d="m 221.55345,431.28315 c 109.33393,19.96296 225.77492,17.60225 316.39055,106.66868 1.8299,1.7986 2.08261,4.8611 2.08261,7.44547 l 0,98.15326 c 0,2.58436 -2.52491,6.12982 -4.63146,4.66491 -124.53489,-86.602 -222.949,-95.75031 -313.8417,-109.44924 -2.53719,-0.3824 -4.63147,-2.08055 -4.63147,-4.66492 l 0,-98.15326 c 0,-2.58437 2.10735,-5.12577 4.63147,-4.6649 z"
       style="color:#000000;display:inline;overflow:visible;visibility:visible;opacity:1;fill:#1b0202;fill-opacity:1;fill-rule:nonzero;stroke:none;stroke-width:0.30000001;stroke-linecap:butt;stroke-linejoin:round;stroke-miterlimit:4;stroke-dasharray:0.6, 0.3, 0.15, 0.3;stroke-dashoffset:0;stroke-opacity:1;marker:none;enable-background:accumulate" />
    <path
       style="color:#000000;display:inline;overflow:visible;visibility:visible;opacity:1;fill:#f91212;fill-opacity:1;fill-rule:nonzero;stroke:none;stroke-width:0.30000001;stroke-linecap:butt;stroke-linejoin:round;stroke-miterlimit:4;stroke-dasharray:0.6, 0.3, 0.15, 0.3;stroke-dashoffset:0;stroke-opacity:1;marker:none;enable-background:accumulate"
       d="m 221.26739,431.29363 c 105.40764,-4.64036 268.41133,-18.21483 314.82915,-45.74517 2.05915,-1.22129 4.32143,2.08053 4.32143,4.66489 l 0,102.35608 c 0,2.58436 -2.1834,3.58768 -4.32143,4.66491 -81.21376,40.91943 -204.81326,42.67161 -314.82915,45.74519 -2.39313,0.0669 -4.32143,-2.08055 -4.32143,-4.66491 l 0,-102.35608 c 0,-2.58437 1.92969,-4.55961 4.32143,-4.66491 z"
       id="rect3336"
       inkscape:connector-curvature="0"
       sodipodi:nodetypes="sssssssss" />
    <path
       style="color:#000000;display:inline;overflow:visible;visibility:visible;opacity:1;fill:#1b0202;fill-opacity:1;fill-rule:nonzero;stroke:none;stroke-width:0.30000001;stroke-linecap:butt;stroke-linejoin:round;stroke-miterlimit:4;stroke-dasharray:0.6, 0.3, 0.15, 0.3;stroke-dashoffset:0;stroke-opacity:1;marker:none;enable-background:accumulate"
       d="m 221.55345,589.88624 c 109.33393,19.96296 226.47006,18.87667 317.0857,107.94309 1.82989,1.79861 1.38746,3.58669 1.38746,6.17104 l 0,98.15329 c 0,2.58434 -2.52491,6.12981 -4.63146,4.6649 -124.53489,-86.602 -222.949,-95.75031 -313.8417,-109.44924 -2.53719,-0.38239 -4.63147,-2.08054 -4.63147,-4.66491 l 0,-98.15326 c 0,-2.58438 2.10735,-5.12578 4.63147,-4.66491 z"
       id="rect4183"
       inkscape:connector-curvature="0"
       sodipodi:nodetypes="sssssssss" />
    <path
       sodipodi:nodetypes="sssssssss"
       inkscape:connector-curvature="0"
       id="path4160"
       d="m 221.26739,587.93194 c 105.40764,-4.64037 271.19189,-19.60512 317.60971,-47.13548 2.05915,-1.22127 1.54087,3.47084 1.54087,6.0552 l 0,102.35608 c 0,2.58436 -2.1834,3.58767 -4.32143,4.6649 -81.21376,40.91943 -204.81326,42.6716 -314.82915,45.74519 -2.39313,0.0669 -4.32143,-2.08055 -4.32143,-4.66491 l 0,-102.35608 c 0,-2.58436 1.92969,-4.55962 4.32143,-4.6649 z"
       style="color:#000000;display:inline;overflow:visible;visibility:visible;opacity:1;fill:#f91212;fill-opacity:1;fill-rule:nonzero;stroke:none;stroke-width:0.30000001;stroke-linecap:butt;stroke-linejoin:round;stroke-miterlimit:4;stroke-dasharray:0.6, 0.3, 0.15, 0.3;stroke-dashoffset:0;stroke-opacity:1;marker:none;enable-background:accumulate" />
    <rect
       style="color:#000000;display:inline;overflow:visible;visibility:visible;opacity:1;fill:#c20606;fill-opacity:1;fill-rule:nonzero;stroke:none;stroke-width:0.30000001;stroke-linecap:butt;stroke-linejoin:round;stroke-miterlimit:4;stroke-dasharray:0.6, 0.3, 0.15, 0.3;stroke-dashoffset:0;stroke-opacity:1;marker:none;enable-background:accumulate"
       id="rect4194"
       width="56.746246"
       height="181.58798"
       x="674.38995"
       y="618.44031"
       rx="25.005875"
       ry="25.005875"
       transform="matrix(0.89184766,0.45233588,-0.45233588,0.89184766,0,0)" />
    <path
       style="color:#000000;display:inline;overflow:visible;visibility:visible;opacity:1;fill:#f91212;fill-opacity:1;fill-rule:nonzero;stroke:none;stroke-width:0.30000001;stroke-linecap:butt;stroke-linejoin:round;stroke-miterlimit:4;stroke-dasharray:0.6, 0.3, 0.15, 0.3;stroke-dashoffset:0;stroke-opacity:1;marker:none;enable-background:accumulate"
       d="m 221.26739,745.4971 c 105.40764,-4.64038 271.19189,-17.86727 317.60971,-45.39763 2.05915,-1.22126 1.54087,1.73299 1.54087,4.31734 l 0,102.35608 c 0,2.58435 -2.1834,3.58768 -4.32143,4.66491 -81.21376,40.91942 -204.81326,42.6716 -314.82915,45.74519 -2.39313,0.0669 -4.32143,-2.08055 -4.32143,-4.66491 l 0,-102.35608 c 0,-2.58436 1.92969,-4.55962 4.32143,-4.6649 z"
       id="path4162"
       inkscape:connector-curvature="0"
       sodipodi:nodetypes="sssssssss" />
    <rect
       style="color:#000000;display:inline;overflow:visible;visibility:visible;opacity:1;fill:#c20606;fill-opacity:1;fill-rule:nonzero;stroke:none;stroke-width:0.30000001;stroke-linecap:butt;stroke-linejoin:round;stroke-miterlimit:4;stroke-dasharray:0.6, 0.3, 0.15, 0.3;stroke-dashoffset:0;stroke-opacity:1;marker:none;enable-background:accumulate"
       id="rect4190"
       width="56.746246"
       height="181.58798"
       x="-393.18292"
       y="288.54123"
       rx="25.005875"
       ry="25.005875"
       transform="matrix(0.56295225,-0.82648942,0.82648942,0.56295225,0,0)" />
    <rect
       transform="matrix(0.8059436,-0.59199232,0.59199232,0.8059436,0,0)"
       ry="25.005875"
       rx="25.005875"
       y="947.24268"
       x="-208.06863"
       height="181.58798"
       width="56.746246"
       id="rect4192"
       style="color:#000000;display:inline;overflow:visible;visibility:visible;opacity:1;fill:#c20606;fill-opacity:1;fill-rule:nonzero;stroke:none;stroke-width:0.30000001;stroke-linecap:butt;stroke-linejoin:round;stroke-miterlimit:4;stroke-dasharray:0.6, 0.3, 0.15, 0.3;stroke-dashoffset:0;stroke-opacity:1;marker:none;enable-background:accumulate" />
    <rect
       transform="matrix(0.71538221,0.69873335,-0.69873335,0.71538221,0,0)"
       ry="25.005875"
       rx="25.005875"
       y="-177.31635"
       x="762.16693"
       height="181.58798"
       width="56.746246"
       id="rect4196"
       style="color:#000000;display:inline;overflow:visible;visibility:visible;opacity:1;fill:#c20606;fill-opacity:1;fill-rule:nonzero;stroke:none;stroke-width:0.30000001;stroke-linecap:butt;stroke-linejoin:round;stroke-miterlimit:4;stroke-dasharray:0.6, 0.3, 0.15, 0.3;stroke-dashoffset:0;stroke-opacity:1;marker:none;enable-background:accumulate" />
  </g>
  <g
     inkscape:groupmode="layer"
     id="layer2"
     inkscape:label="Layer 2"
     style="display:none">
    <circle
       r="79.301537"
       cy="288.11469"
       cx="377.69183"
       id="circle4219"
       style="color:#000000;display:inline;overflow:visible;visibility:visible;opacity:1;fill:#c20606;fill-opacity:1;fill-rule:nonzero;stroke:none;stroke-width:0.30000001;stroke-linecap:butt;stroke-linejoin:round;stroke-miterlimit:4;stroke-dasharray:0.6, 0.3, 0.15, 0.3;stroke-dashoffset:0;stroke-opacity:1;marker:none;enable-background:accumulate" />
    <path
       style="color:#000000;display:inline;overflow:visible;visibility:visible;opacity:1;fill:#1b0202;fill-opacity:1;fill-rule:nonzero;stroke:none;stroke-width:0.30000001;stroke-linecap:butt;stroke-linejoin:round;stroke-miterlimit:4;stroke-dasharray:0.6, 0.3, 0.15, 0.3;stroke-dashoffset:0;stroke-opacity:1;marker:none;enable-background:accumulate"
       d="m 221.55345,404.00903 c 109.33393,19.96296 225.77492,33.76469 316.39055,122.83112 1.8299,1.7986 2.08261,4.8611 2.08261,7.44547 l 0,98.15326 c 0,2.58436 -2.52491,6.12982 -4.63146,4.66491 -124.53489,-86.602 -222.949,-111.91275 -313.8417,-125.61168 -2.53719,-0.3824 -4.63147,-2.08055 -4.63147,-4.66492 l 0,-98.15326 c 0,-2.58437 2.10735,-5.12577 4.63147,-4.6649 z"
       id="path4221"
       inkscape:connector-curvature="0"
       sodipodi:nodetypes="sssssssss" />
    <path
       sodipodi:nodetypes="sssssssss"
       inkscape:connector-curvature="0"
       id="path4223"
       d="m 221.26739,396.94844 c 105.40764,-4.64036 268.41133,-18.21483 314.82915,-45.74517 2.05915,-1.22129 4.32143,2.08053 4.32143,4.66489 l 0,102.35608 c 0,2.58436 -2.1834,3.58768 -4.32143,4.66491 -81.21376,40.91943 -204.81326,42.67161 -314.82915,45.74519 -2.39313,0.0669 -4.32143,-2.08055 -4.32143,-4.66491 l 0,-102.35608 c 0,-2.58437 1.92969,-4.55961 4.32143,-4.66491 z"
       style="color:#000000;display:inline;overflow:visible;visibility:visible;opacity:1;fill:#f91212;fill-opacity:1;fill-rule:nonzero;stroke:none;stroke-width:0.30000001;stroke-linecap:butt;stroke-linejoin:round;stroke-miterlimit:4;stroke-dasharray:0.6, 0.3, 0.15, 0.3;stroke-dashoffset:0;stroke-opacity:1;marker:none;enable-background:accumulate" />
    <path
       sodipodi:nodetypes="sssssssss"
       inkscape:connector-curvature="0"
       id="path4225"
       d="m 221.55345,573.7238 c 109.33393,19.96296 226.47006,43.12033 317.0857,132.18675 1.82989,1.79861 1.38746,3.58669 1.38746,6.17104 l 0,98.15329 c 0,2.58434 -2.52491,6.12981 -4.63146,4.6649 -124.53489,-86.602 -222.949,-119.99397 -313.8417,-133.6929 -2.53719,-0.38239 -4.63147,-2.08054 -4.63147,-4.66491 l 0,-98.15326 c 0,-2.58438 2.10735,-5.12578 4.63147,-4.66491 z"
       style="color:#000000;display:inline;overflow:visible;visibility:visible;opacity:1;fill:#1b0202;fill-opacity:1;fill-rule:nonzero;stroke:none;stroke-width:0.30000001;stroke-linecap:butt;stroke-linejoin:round;stroke-miterlimit:4;stroke-dasharray:0.6, 0.3, 0.15, 0.3;stroke-dashoffset:0;stroke-opacity:1;marker:none;enable-background:accumulate" />
    <path
       style="color:#000000;display:inline;overflow:visible;visibility:visible;opacity:1;fill:#f91212;fill-opacity:1;fill-rule:nonzero;stroke:none;stroke-width:0.30000001;stroke-linecap:butt;stroke-linejoin:round;stroke-miterlimit:4;stroke-dasharray:0.6, 0.3, 0.15, 0.3;stroke-dashoffset:0;stroke-opacity:1;marker:none;enable-background:accumulate"
       d="m 221.26739,570.75935 c 105.40764,-4.64037 271.19189,-19.60512 317.60971,-47.13548 2.05915,-1.22127 1.54087,3.47084 1.54087,6.0552 l 0,102.35608 c 0,2.58436 -2.1834,3.58767 -4.32143,4.6649 -81.21376,40.91943 -204.81326,42.6716 -314.82915,45.74519 -2.39313,0.0669 -4.32143,-2.08055 -4.32143,-4.66491 l 0,-102.35608 c 0,-2.58436 1.92969,-4.55962 4.32143,-4.6649 z"
       id="path4227"
       inkscape:connector-curvature="0"
       sodipodi:nodetypes="sssssssss" />
    <rect
       transform="matrix(0.89184766,0.45233588,-0.45233588,0.89184766,0,0)"
       ry="25.005875"
       rx="25.005875"
       y="636.56201"
       x="665.45868"
       height="181.58798"
       width="56.746246"
       id="rect4229"
       style="color:#000000;display:inline;overflow:visible;visibility:visible;opacity:1;fill:#c20606;fill-opacity:1;fill-rule:nonzero;stroke:none;stroke-width:0.30000001;stroke-linecap:butt;stroke-linejoin:round;stroke-miterlimit:4;stroke-dasharray:0.6, 0.3, 0.15, 0.3;stroke-dashoffset:0;stroke-opacity:1;marker:none;enable-background:accumulate" />
    <path
       sodipodi:nodetypes="sssssssss"
       inkscape:connector-curvature="0"
       id="path4231"
       d="m 221.26739,759.63924 c 105.40764,-4.64038 271.19189,-17.86727 317.60971,-45.39763 2.05915,-1.22126 1.54087,1.73299 1.54087,4.31734 l 0,102.35608 c 0,2.58435 -2.1834,3.58768 -4.32143,4.66491 -81.21376,40.91942 -204.81326,42.6716 -314.82915,45.74519 -2.39313,0.0669 -4.32143,-2.08055 -4.32143,-4.66491 l 0,-102.35608 c 0,-2.58436 1.92969,-4.55962 4.32143,-4.6649 z"
       style="color:#000000;display:inline;overflow:visible;visibility:visible;opacity:1;fill:#f91212;fill-opacity:1;fill-rule:nonzero;stroke:none;stroke-width:0.30000001;stroke-linecap:butt;stroke-linejoin:round;stroke-miterlimit:4;stroke-dasharray:0.6, 0.3, 0.15, 0.3;stroke-dashoffset:0;stroke-opacity:1;marker:none;enable-background:accumulate" />
    <rect
       transform="matrix(0.56295225,-0.82648942,0.82648942,0.56295225,0,0)"
       ry="25.005875"
       rx="25.005875"
       y="274.2883"
       x="-368.66895"
       height="181.58798"
       width="56.746246"
       id="rect4233"
       style="color:#000000;display:inline;overflow:visible;visibility:visible;opacity:1;fill:#c20606;fill-opacity:1;fill-rule:nonzero;stroke:none;stroke-width:0.30000001;stroke-linecap:butt;stroke-linejoin:round;stroke-miterlimit:4;stroke-dasharray:0.6, 0.3, 0.15, 0.3;stroke-dashoffset:0;stroke-opacity:1;marker:none;enable-background:accumulate" />
    <rect
       style="color:#000000;display:inline;overflow:visible;visibility:visible;opacity:1;fill:#c20606;fill-opacity:1;fill-rule:nonzero;stroke:none;stroke-width:0.30000001;stroke-linecap:butt;stroke-linejoin:round;stroke-miterlimit:4;stroke-dasharray:0.6, 0.3, 0.15, 0.3;stroke-dashoffset:0;stroke-opacity:1;marker:none;enable-background:accumulate"
       id="rect4235"
       width="56.746246"
       height="181.58798"
       x="-209.92766"
       y="963.42444"
       rx="25.005875"
       ry="25.005875"
       transform="matrix(0.8059436,-0.59199232,0.59199232,0.8059436,0,0)" />
    <rect
       style="color:#000000;display:inline;overflow:visible;visibility:visible;opacity:1;fill:#c20606;fill-opacity:1;fill-rule:nonzero;stroke:none;stroke-width:0.30000001;stroke-linecap:butt;stroke-linejoin:round;stroke-miterlimit:4;stroke-dasharray:0.6, 0.3, 0.15, 0.3;stroke-dashoffset:0;stroke-opacity:1;marker:none;enable-background:accumulate"
       id="rect4237"
       width="56.746246"
       height="181.58798"
       x="739.54681"
       y="-197.58405"
       rx="25.005875"
       ry="25.005875"
       transform="matrix(0.71538221,0.69873335,-0.69873335,0.71538221,0,0)" />
  </g>
  <g
     inkscape:groupmode="layer"
     id="layer3"
     inkscape:label="Layer 3"
     style="display:none">
    <circle
       style="color:#000000;display:inline;overflow:visible;visibility:visible;opacity:1;fill:#c20606;fill-opacity:1;fill-rule:nonzero;stroke:none;stroke-width:0.30000001;stroke-linecap:butt;stroke-linejoin:round;stroke-miterlimit:4;stroke-dasharray:0.6, 0.3, 0.15, 0.3;stroke-dashoffset:0;stroke-opacity:1;marker:none;enable-background:accumulate"
       id="circle4270"
       cx="365.57001"
       cy="207.30247"
       r="79.301537" />
    <path
       sodipodi:nodetypes="sssssssss"
       inkscape:connector-curvature="0"
       id="path4272"
       d="m 221.55345,334.71461 c 109.33393,19.96296 225.77492,47.50072 316.39055,136.56715 1.8299,1.7986 2.08261,4.8611 2.08261,7.44547 l 0,103.20402 c 0,2.58436 -2.52491,6.12982 -4.63146,4.66491 -124.53489,-86.602 -222.949,-130.69954 -313.8417,-144.39847 -2.53719,-0.3824 -4.63147,-2.08055 -4.63147,-4.66492 l 0,-98.15326 c 0,-2.58437 2.10735,-5.12577 4.63147,-4.6649 z"
       style="color:#000000;display:inline;overflow:visible;visibility:visible;opacity:1;fill:#1b0202;fill-opacity:1;fill-rule:nonzero;stroke:none;stroke-width:0.30000001;stroke-linecap:butt;stroke-linejoin:round;stroke-miterlimit:4;stroke-dasharray:0.6, 0.3, 0.15, 0.3;stroke-dashoffset:0;stroke-opacity:1;marker:none;enable-background:accumulate" />
    <path
       style="color:#000000;display:inline;overflow:visible;visibility:visible;opacity:1;fill:#f91212;fill-opacity:1;fill-rule:nonzero;stroke:none;stroke-width:0.30000001;stroke-linecap:butt;stroke-linejoin:round;stroke-miterlimit:4;stroke-dasharray:0.6, 0.3, 0.15, 0.3;stroke-dashoffset:0;stroke-opacity:1;marker:none;enable-background:accumulate"
       d="m 221.26739,330.68448 c 105.40764,-4.64036 268.41133,-40.84429 314.82915,-68.37463 2.05915,-1.22129 4.32143,2.08053 4.32143,4.66489 l 0,102.35608 c 0,2.58436 -2.1834,3.58768 -4.32143,4.66491 -81.21376,40.91943 -204.81326,65.30107 -314.82915,68.37465 -2.39313,0.0669 -4.32143,-2.08055 -4.32143,-4.66491 l 0,-102.35608 c 0,-2.58437 1.92969,-4.55961 4.32143,-4.66491 z"
       id="path4274"
       inkscape:connector-curvature="0"
       sodipodi:nodetypes="sssssssss" />
    <path
       style="color:#000000;display:inline;overflow:visible;visibility:visible;opacity:1;fill:#1b0202;fill-opacity:1;fill-rule:nonzero;stroke:none;stroke-width:0.30000001;stroke-linecap:butt;stroke-linejoin:round;stroke-miterlimit:4;stroke-dasharray:0.6, 0.3, 0.15, 0.3;stroke-dashoffset:0;stroke-opacity:1;marker:none;enable-background:accumulate"
       d="m 220.5433,555.54105 c 109.33393,19.96296 227.48021,46.30308 318.09585,135.3695 1.82989,1.79861 1.38746,3.58669 1.38746,6.17104 l 0,98.15329 c 0,2.58434 -2.52491,6.12981 -4.63146,4.6649 C 410.86026,713.29778 311.436,676.72306 220.5433,663.02413 c -2.53719,-0.38239 -4.63147,-2.08054 -4.63147,-4.66491 l 0,-98.15326 c 0,-2.58438 2.10735,-5.12578 4.63147,-4.66491 z"
       id="path4276"
       inkscape:connector-curvature="0"
       sodipodi:nodetypes="sssssssss" />
    <path
       sodipodi:nodetypes="sssssssss"
       inkscape:connector-curvature="0"
       id="path4278"
       d="m 221.26739,550.5563 c 105.40764,-4.64037 271.19189,-46.87924 317.60971,-74.4096 2.05915,-1.22127 1.54087,3.47084 1.54087,6.0552 l 0,102.35608 c 0,2.58436 -2.1834,3.58767 -4.32143,4.6649 -81.21376,40.91943 -204.81326,69.94572 -314.82915,73.01931 -2.39313,0.0669 -4.32143,-2.08055 -4.32143,-4.66491 l 0,-102.35608 c 0,-2.58436 1.92969,-4.55962 4.32143,-4.6649 z"
       style="color:#000000;display:inline;overflow:visible;visibility:visible;opacity:1;fill:#f91212;fill-opacity:1;fill-rule:nonzero;stroke:none;stroke-width:0.30000001;stroke-linecap:butt;stroke-linejoin:round;stroke-miterlimit:4;stroke-dasharray:0.6, 0.3, 0.15, 0.3;stroke-dashoffset:0;stroke-opacity:1;marker:none;enable-background:accumulate" />
    <rect
       style="color:#000000;display:inline;overflow:visible;visibility:visible;opacity:1;fill:#c20606;fill-opacity:1;fill-rule:nonzero;stroke:none;stroke-width:0.30000001;stroke-linecap:butt;stroke-linejoin:round;stroke-miterlimit:4;stroke-dasharray:0.6, 0.3, 0.15, 0.3;stroke-dashoffset:0;stroke-opacity:1;marker:none;enable-background:accumulate"
       id="rect4280"
       width="56.746246"
       height="181.58798"
       x="752.73425"
       y="543.67291"
       rx="25.005875"
       ry="25.005875"
       transform="matrix(0.82325716,0.5676686,-0.5676686,0.82325716,0,0)" />
    <path
       style="color:#000000;display:inline;overflow:visible;visibility:visible;opacity:1;fill:#f91212;fill-opacity:1;fill-rule:nonzero;stroke:none;stroke-width:0.30000001;stroke-linecap:butt;stroke-linejoin:round;stroke-miterlimit:4;stroke-dasharray:0.6, 0.3, 0.15, 0.3;stroke-dashoffset:0;stroke-opacity:1;marker:none;enable-background:accumulate"
       d="m 221.26739,759.63924 c 105.40764,-4.64038 271.19189,-32.86727 317.60971,-60.39763 2.05915,-1.22126 1.54087,1.73299 1.54087,4.31734 l 0,102.35608 c 0,2.58435 -2.1834,3.58768 -4.32143,4.66491 -81.21376,40.91942 -204.81326,57.6716 -314.82915,60.74519 -2.39313,0.0669 -4.32143,-2.08055 -4.32143,-4.66491 l 0,-102.35608 c 0,-2.58436 1.92969,-4.55962 4.32143,-4.6649 z"
       id="path4282"
       inkscape:connector-curvature="0"
       sodipodi:nodetypes="sssssssss" />
    <rect
       style="color:#000000;display:inline;overflow:visible;visibility:visible;opacity:1;fill:#c20606;fill-opacity:1;fill-rule:nonzero;stroke:none;stroke-width:0.30000001;stroke-linecap:butt;stroke-linejoin:round;stroke-miterlimit:4;stroke-dasharray:0.6, 0.3, 0.15, 0.3;stroke-dashoffset:0;stroke-opacity:1;marker:none;enable-background:accumulate"
       id="rect4284"
       width="56.746246"
       height="181.58798"
       x="-163.7198"
       y="336.63382"
       rx="25.005875"
       ry="25.005875"
       transform="matrix(0.84231755,-0.53898159,0.53898159,0.84231755,0,0)" />
    <rect
       transform="matrix(0.68694932,-0.72670533,0.72670533,0.68694932,0,0)"
       ry="25.005875"
       rx="25.005875"
       y="918.85114"
       x="-401.67313"
       height="181.58798"
       width="56.746246"
       id="rect4286"
       style="color:#000000;display:inline;overflow:visible;visibility:visible;opacity:1;fill:#c20606;fill-opacity:1;fill-rule:nonzero;stroke:none;stroke-width:0.30000001;stroke-linecap:butt;stroke-linejoin:round;stroke-miterlimit:4;stroke-dasharray:0.6, 0.3, 0.15, 0.3;stroke-dashoffset:0;stroke-opacity:1;marker:none;enable-background:accumulate" />
    <rect
       transform="matrix(0.86152846,0.50770929,-0.50770929,0.86152846,0,0)"
       ry="25.005875"
       rx="25.005875"
       y="-54.761581"
       x="731.76434"
       height="181.58798"
       width="56.746246"
       id="rect4288"
       style="color:#000000;display:inline;overflow:visible;visibility:visible;opacity:1;fill:#c20606;fill-opacity:1;fill-rule:nonzero;stroke:none;stroke-width:0.30000001;stroke-linecap:butt;stroke-linejoin:round;stroke-miterlimit:4;stroke-dasharray:0.6, 0.3, 0.15, 0.3;stroke-dashoffset:0;stroke-opacity:1;marker:none;enable-background:accumulate" />
  </g>
  <g
     inkscape:groupmode="layer"
     id="layer4"
     inkscape:label="Layer 4"
     style="display:inline">
    <circle
       r="79.301537"
       cy="122.44965"
       cx="361.52939"
       id="circle4301"
       style="color:#000000;display:inline;overflow:visible;visibility:visible;opacity:1;fill:#c20606;fill-opacity:1;fill-rule:nonzero;stroke:none;stroke-width:0.30000001;stroke-linecap:butt;stroke-linejoin:round;stroke-miterlimit:4;stroke-dasharray:0.6, 0.3, 0.15, 0.3;stroke-dashoffset:0;stroke-opacity:1;marker:none;enable-background:accumulate" />
    <path
       style="color:#000000;display:inline;overflow:visible;visibility:visible;opacity:1;fill:#1b0202;fill-opacity:1;fill-rule:nonzero;stroke:none;stroke-width:0.30000001;stroke-linecap:butt;stroke-linejoin:round;stroke-miterlimit:4;stroke-dasharray:0.6, 0.3, 0.15, 0.3;stroke-dashoffset:0;stroke-opacity:1;marker:none;enable-background:accumulate"
       d="m 221.55345,278.8183 c 109.33393,19.96296 225.77492,45.35786 316.39055,134.42429 1.8299,1.7986 2.1394,4.86172 2.08261,7.44547 l -2.14286,97.48973 c -0.0568,2.58374 -2.52491,7.20125 -4.63146,5.73634 -124.53489,-86.602 -220.80614,-123.91382 -311.69884,-137.61275 -2.53719,-0.3824 -4.63147,-2.08055 -4.63147,-4.66492 l 0,-98.15326 c 0,-2.58437 2.10735,-5.12577 4.63147,-4.6649 z"
       id="path4303"
       inkscape:connector-curvature="0"
       sodipodi:nodetypes="sssssssss" />
    <path
       sodipodi:nodetypes="sssssssss"
       inkscape:connector-curvature="0"
       id="path4305"
       d="m 221.26739,274.11594 c 105.40764,-4.64036 268.41133,-62.98715 314.82915,-90.51749 2.05915,-1.22129 4.32143,2.08053 4.32143,4.66489 l 0,102.35608 c 0,2.58436 -2.1834,3.58768 -4.32143,4.66491 -81.21376,40.91943 -204.81326,87.44393 -314.82915,90.51751 -2.39313,0.0669 -4.32143,-2.08055 -4.32143,-4.66491 l 0,-102.35608 c 0,-2.58437 1.92969,-4.55961 4.32143,-4.66491 z"
       style="color:#000000;display:inline;overflow:visible;visibility:visible;opacity:1;fill:#f91212;fill-opacity:1;fill-rule:nonzero;stroke:none;stroke-width:0.30000001;stroke-linecap:butt;stroke-linejoin:round;stroke-miterlimit:4;stroke-dasharray:0.6, 0.3, 0.15, 0.3;stroke-dashoffset:0;stroke-opacity:1;marker:none;enable-background:accumulate" />
    <path
       sodipodi:nodetypes="sssssssss"
       inkscape:connector-curvature="0"
       id="path4307"
       d="m 222.56361,523.64945 c 109.33393,19.96296 225.4599,86.58409 316.07554,175.65051 1.82989,1.79861 1.38746,3.58669 1.38746,6.17104 l 0,98.15329 c 0,2.58434 -2.52491,6.12981 -4.63146,4.6649 -124.53489,-86.602 -219.41346,-164.97295 -310.30616,-178.67188 -2.53719,-0.38239 -4.56396,-2.08143 -4.63147,-4.66491 l -2.52538,-96.63804 c -0.0675,-2.58349 2.10735,-5.12578 4.63147,-4.66491 z"
       style="color:#000000;display:inline;overflow:visible;visibility:visible;opacity:1;fill:#1b0202;fill-opacity:1;fill-rule:nonzero;stroke:none;stroke-width:0.30000001;stroke-linecap:butt;stroke-linejoin:round;stroke-miterlimit:4;stroke-dasharray:0.6, 0.3, 0.15, 0.3;stroke-dashoffset:0;stroke-opacity:1;marker:none;enable-background:accumulate" />
    <path
       style="color:#000000;display:inline;overflow:visible;visibility:visible;opacity:1;fill:#f91212;fill-opacity:1;fill-rule:nonzero;stroke:none;stroke-width:0.30000001;stroke-linecap:butt;stroke-linejoin:round;stroke-miterlimit:4;stroke-dasharray:0.6, 0.3, 0.15, 0.3;stroke-dashoffset:0;stroke-opacity:1;marker:none;enable-background:accumulate"
       d="m 221.26739,520.86449 c 111.03883,1.50274 285.65186,-62.5333 317.60971,-105.83817 1.42158,-1.92633 1.54087,0.6137 1.54087,3.19806 l 0,102.35608 c 0,0 -2.6032,2.99778 -4.32143,4.6649 -65.52723,63.57775 -204.63913,104.48295 -314.82915,107.30502 -2.39328,0.0613 -4.32143,-2.08055 -4.32143,-4.66491 l 0,-102.35608 c 0,-2.58436 1.92759,-4.6973 4.32143,-4.6649 z"
       id="path4309"
       inkscape:connector-curvature="0"
       sodipodi:nodetypes="ssscsssss" />
    <rect
       transform="matrix(0.82325716,0.5676686,-0.5676686,0.82325716,0,0)"
       ry="25.005875"
       rx="25.005875"
       y="545.33612"
       x="753.8811"
       height="181.58798"
       width="56.746246"
       id="rect4311"
       style="color:#000000;display:inline;overflow:visible;visibility:visible;opacity:1;fill:#c20606;fill-opacity:1;fill-rule:nonzero;stroke:none;stroke-width:0.30000001;stroke-linecap:butt;stroke-linejoin:round;stroke-miterlimit:4;stroke-dasharray:0.6, 0.3, 0.15, 0.3;stroke-dashoffset:0;stroke-opacity:1;marker:none;enable-background:accumulate" />
    <path
       sodipodi:nodetypes="sssssssss"
       inkscape:connector-curvature="0"
       id="path4313"
       d="m 221.26739,759.63924 c 105.40764,-4.64038 271.19189,-32.86727 317.60971,-60.39763 2.05915,-1.22126 1.54087,1.73299 1.54087,4.31734 l 0,102.35608 c 0,2.58435 -2.1834,3.58768 -4.32143,4.66491 -81.21376,40.91942 -204.81326,57.6716 -314.82915,60.74519 -2.39313,0.0669 -4.32143,-2.08055 -4.32143,-4.66491 l 0,-102.35608 c 0,-2.58436 1.92969,-4.55962 4.32143,-4.6649 z"
       style="color:#000000;display:inline;overflow:visible;visibility:visible;opacity:1;fill:#f91212;fill-opacity:1;fill-rule:nonzero;stroke:none;stroke-width:0.30000001;stroke-linecap:butt;stroke-linejoin:round;stroke-miterlimit:4;stroke-dasharray:0.6, 0.3, 0.15, 0.3;stroke-dashoffset:0;stroke-opacity:1;marker:none;enable-background:accumulate" />
    <rect
       transform="matrix(0.84231755,-0.53898159,0.53898159,0.84231755,0,0)"
       ry="25.005875"
       rx="25.005875"
       y="271.42587"
       x="-153.17519"
       height="181.58798"
       width="56.746246"
       id="rect4315"
       style="color:#000000;display:inline;overflow:visible;visibility:visible;opacity:1;fill:#c20606;fill-opacity:1;fill-rule:nonzero;stroke:none;stroke-width:0.30000001;stroke-linecap:butt;stroke-linejoin:round;stroke-miterlimit:4;stroke-dasharray:0.6, 0.3, 0.15, 0.3;stroke-dashoffset:0;stroke-opacity:1;marker:none;enable-background:accumulate" />
    <rect
       style="color:#000000;display:inline;overflow:visible;visibility:visible;opacity:1;fill:#c20606;fill-opacity:1;fill-rule:nonzero;stroke:none;stroke-width:0.30000001;stroke-linecap:butt;stroke-linejoin:round;stroke-miterlimit:4;stroke-dasharray:0.6, 0.3, 0.15, 0.3;stroke-dashoffset:0;stroke-opacity:1;marker:none;enable-background:accumulate"
       id="rect4317"
       width="56.746246"
       height="181.58798"
       x="-390.32941"
       y="922.02844"
       rx="25.005875"
       ry="25.005875"
       transform="matrix(0.68694932,-0.72670533,0.72670533,0.68694932,0,0)" />
    <rect
       style="color:#000000;display:inline;overflow:visible;visibility:visible;opacity:1;fill:#c20606;fill-opacity:1;fill-rule:nonzero;stroke:none;stroke-width:0.30000001;stroke-linecap:butt;stroke-linejoin:round;stroke-miterlimit:4;stroke-dasharray:0.6, 0.3, 0.15, 0.3;stroke-dashoffset:0;stroke-opacity:1;marker:none;enable-background:accumulate"
       id="rect4319"
       width="56.746246"
       height="181.58798"
       x="717.90106"
       y="-98.182327"
       rx="25.005875"
       ry="25.005875"
       transform="matrix(0.86152846,0.50770929,-0.50770929,0.86152846,0,0)" />
  </g>
</svg>
